<?xml version="1.0" encoding="UTF-8"?>
<svg version="1.1" xmlns="http://www.w3.org/2000/svg" width="700" height="800">
<path d="M0 0 C231 0 462 0 700 0 C700 264 700 528 700 800 C469 800 238 800 0 800 C0 536 0 272 0 0 Z " fill="#000000" transform="translate(0,0)"/>
<path d="M0 0 C1.73056641 -0.01740234 1.73056641 -0.01740234 3.49609375 -0.03515625 C10.37042817 -0.01164085 15.89722067 0.79539598 22.25 3.375 C24.10431641 3.99568359 24.10431641 3.99568359 25.99609375 4.62890625 C41.76219787 10.21794845 55.68911858 18.68110894 69.42333984 28.125 C72.51202553 30.23861544 75.63288313 32.30366209 78.75 34.375 C80.00135259 35.21086189 81.25265473 36.04679932 82.50390625 36.8828125 C84.98271733 38.53621369 87.47000015 40.17558941 89.96484375 41.8046875 C98.8047186 47.59904699 107.29041761 53.77485903 115.67871094 60.20507812 C117.16600581 61.31246113 118.70714829 62.34643219 120.25 63.375 C120.188125 61.704375 120.188125 61.704375 120.125 60 C120.2681035 46.30976552 125.99098784 33.4160705 135.25 23.375 C143.79945337 15.49142895 155.51106647 9.25160867 167.25 8.375 C168.1678125 8.29507813 169.085625 8.21515625 170.03125 8.1328125 C182.21025823 7.58796213 193.39315852 11.3192034 203.25 18.375 C203.88421875 18.82617188 204.5184375 19.27734375 205.171875 19.7421875 C215.06610306 27.49120682 221.666477 39.99766719 223.25 52.375 C224.37547503 67.82863791 219.82499281 81.42528996 210.59765625 93.72265625 C205.25705247 99.75638331 198.53420354 104.02875523 191.25 107.375 C190.59 107.375 189.93 107.375 189.25 107.375 C189.25 108.035 189.25 108.695 189.25 109.375 C189.93578125 109.61605469 190.6215625 109.85710937 191.328125 110.10546875 C194.80876438 111.61777864 197.86630986 113.57301774 201 115.6875 C201.96812622 116.33803345 201.96812622 116.33803345 202.95581055 117.00170898 C213.86975924 124.43134332 224.46822181 132.41179812 234.13671875 141.4140625 C236.08413513 143.22109212 238.08640391 144.92270999 240.125 146.625 C260.62607833 164.65606889 278.88663082 190.65268431 282.25 218.375 C283.23124077 236.52112652 282.59151428 255.43312269 272.4296875 271.19921875 C270.79357634 275.60371669 272.19003893 278.42540791 273.875 282.5625 C279.10991526 296.79061842 280.87665648 311.06770591 280.32373047 326.17529297 C280.24742364 328.45186416 280.21841394 330.72625733 280.19140625 333.00390625 C279.5778474 362.11845363 272.07318204 393.25125525 252.25 415.375 C251.55261719 416.19097656 250.85523438 417.00695312 250.13671875 417.84765625 C227.53670148 443.81961215 196.46312937 460.37186368 164.25 471.375 C164.81267578 472.21417969 164.81267578 472.21417969 165.38671875 473.0703125 C173.78698982 486.23144249 177.66325064 500.60795793 177.5 516.125 C177.49105713 517.09236084 177.48211426 518.05972168 177.47290039 519.05639648 C176.92662732 552.95646186 161.19178573 581.34168423 137.69824219 604.97460938 C133.79277796 608.75103264 129.55585175 612.07325634 125.25 615.375 C124.18518504 616.21616732 123.12141925 617.05866412 122.05859375 617.90234375 C88.06804959 644.71867487 45.10689443 657.24240916 2.01953125 657.61328125 C0.60219948 657.62810799 0.60219948 657.62810799 -0.84376526 657.64323425 C-40.08187293 657.96961612 -40.08187293 657.96961612 -56.75 653.375 C-57.77319336 653.10123535 -58.79638672 652.8274707 -59.85058594 652.54541016 C-101.963533 641.04135518 -140.74499763 621.38148455 -167.75 586.375 C-168.97976562 584.83585938 -168.97976562 584.83585938 -170.234375 583.265625 C-182.9384837 567.26794779 -196.29076175 546.98545159 -199.0390625 526.1875 C-200.21435279 523.19115551 -202.60656622 521.95302444 -205.1875 520.125 C-206.29123737 519.32672621 -207.39408961 518.52722729 -208.49609375 517.7265625 C-209.04765137 517.32985352 -209.59920898 516.93314453 -210.16748047 516.52441406 C-217.48728371 511.20790162 -224.20287393 505.24538872 -230.8125 499.0859375 C-233.41372985 496.68533442 -236.06966413 494.37343061 -238.75 492.0625 C-273.7123779 460.50699918 -289.73798471 414.83744153 -302.06542969 370.79199219 C-302.66339551 368.68077193 -303.28285387 366.57801191 -303.9140625 364.4765625 C-307.05251459 353.62374726 -308.49927731 342.58459036 -309.75 331.375 C-309.87671082 330.29936295 -309.87671082 330.29936295 -310.00598145 329.20199585 C-310.69707646 322.95512801 -310.89580852 316.79737933 -310.8828125 310.515625 C-310.88435837 309.50168167 -310.88590424 308.48773834 -310.88749695 307.44306946 C-310.88994804 304.17033604 -310.8837478 300.89772176 -310.875 297.625 C-310.87245209 296.50020233 -310.86990417 295.37540466 -310.86727905 294.21652222 C-310.84956892 287.55615108 -310.81640806 280.89600732 -310.76959229 274.23577881 C-310.75261588 271.7569594 -310.73974485 269.27816434 -310.72802734 266.79931641 C-310.46831643 231.87920348 -306.98639856 194.39722823 -297.0234375 160.83203125 C-295.62058814 156.05788657 -294.53679464 151.22622514 -293.4375 146.375 C-289.14767846 127.86876868 -283.54192617 109.70928961 -275.75 92.375 C-275.32734863 91.41658203 -274.90469727 90.45816406 -274.46923828 89.47070312 C-251.07212773 36.53606386 -251.07212773 36.53606386 -236.75 29.375 C-230.17975 28.55873676 -226.11739163 29.55589441 -220.75 33.375 C-218.0625 35.75 -218.0625 35.75 -215.75 38.375 C-214.574375 39.674375 -214.574375 39.674375 -213.375 41 C-210.99376067 45.94565092 -211.71242674 50.0674468 -212.75 55.375 C-214.11287445 59.18859159 -215.88670964 62.7212612 -217.75 66.3125 C-218.76076753 68.34683581 -219.76985575 70.38200678 -220.77734375 72.41796875 C-221.53313721 73.92689697 -221.53313721 73.92689697 -222.30419922 75.46630859 C-234.91573389 100.83845045 -243.79276798 127.53365608 -251.67626953 154.67871094 C-252.33053055 156.93098739 -252.98920975 159.18199442 -253.65576172 161.43066406 C-258.80296518 178.81994889 -262.55446323 196.53491497 -265.75 214.375 C-265.98025879 215.64649902 -266.21051758 216.91799805 -266.44775391 218.22802734 C-270.02625063 239.22242574 -270.16402896 260.37766483 -270.24040604 281.61688995 C-270.24983644 283.83650415 -270.26545099 286.056004 -270.28219604 288.27557373 C-270.40589165 307.31645342 -269.15173073 325.58523074 -265.75 344.375 C-265.46835426 346.02784158 -265.18842041 347.6809763 -264.91064453 349.33447266 C-264.18979607 353.54837506 -263.40006432 357.7453174 -262.5625 361.9375 C-262.41760132 362.66382629 -262.27270264 363.39015259 -262.12341309 364.13848877 C-255.27478922 397.96856593 -241.64405225 427.29536501 -217.75 452.375 C-216.89148438 453.34566406 -216.89148438 453.34566406 -216.015625 454.3359375 C-209.32465835 461.58941904 -200.86690571 466.85683113 -192.75 472.375 C-190.26582053 469.35584798 -188.07468321 466.34759609 -186.0625 463 C-180.80972307 455.07475762 -172.63257105 449.60863449 -163.75 446.375 C-159.55560603 445.74604644 -155.48293208 445.76212181 -151.25 445.875 C-150.18652344 445.87242187 -149.12304688 445.86984375 -148.02734375 445.8671875 C-136.30996355 446.01095904 -127.31453052 449.85000061 -116.80023193 454.75836182 C-105.04660708 460.22674936 -93.24345389 465.03741306 -80.80761719 468.75537109 C-79.02149641 469.29324183 -77.24766321 469.87159581 -75.4765625 470.45703125 C-59.65934764 475.41973906 -47.6096925 470.6859471 -33.671875 463.4765625 C-28.49110548 460.73716232 -23.58118408 457.69132127 -18.75 454.375 C-18.21697266 454.01180664 -17.68394531 453.64861328 -17.13476562 453.27441406 C-10.52240401 448.74679359 -4.22667741 444.01965753 1.8125 438.75 C13.63412616 428.54528104 28.56069542 419.07371949 44.83203125 419.8203125 C55.16569004 421.4973177 65.11603551 425.223084 74.91015625 428.81640625 C82.44478797 431.52390915 90.07095111 433.6152581 97.8125 435.625 C99.15183072 435.97864442 100.49102404 436.33280959 101.83007812 436.6875 C129.8941406 444.069044 155.27969998 439.54949734 180.29296875 425.05859375 C193.18744509 417.36750788 206.1043359 408.85886557 215.6484375 397.140625 C216.17695312 396.55796875 216.70546875 395.9753125 217.25 395.375 C217.91 395.375 218.57 395.375 219.25 395.375 C219.62898437 394.36759766 219.62898437 394.36759766 220.015625 393.33984375 C221.2035185 390.48664385 222.56602829 387.76415826 223.96606445 385.01074219 C235.24870924 362.38684147 238.36524382 337.36173493 239.25 312.375 C237.60644531 312.808125 237.60644531 312.808125 235.9296875 313.25 C225.21636293 315.8432544 214.83534682 316.8093634 203.8125 316.875 C202.57032715 316.89304687 201.3281543 316.91109375 200.04833984 316.9296875 C183.49213412 316.82393928 170.55633831 311.00873272 158.5703125 299.79296875 C146.78604591 287.51273135 141.66908655 273.77032993 141.9375 256.9609375 C142.36752315 252.02642184 143.69042083 248.56340227 146.25 244.375 C146.65089844 243.64023437 147.05179687 242.90546875 147.46484375 242.1484375 C154.9692161 229.48888763 168.27248131 222.4262164 181.875 218 C198.67387281 213.81770801 217.24195272 214.97178109 233.25 221.375 C219.55014256 191.90882618 198.91029605 173.04885738 172.02246094 155.48217773 C162.30312025 149.11496104 153.53626424 142.54781008 145.25 134.375 C144.44941162 133.58867187 143.64882324 132.80234375 142.82397461 131.9921875 C140.9492883 130.1354767 139.09608527 128.26008707 137.25 126.375 C136.404375 125.529375 135.55875 124.68375 134.6875 123.8125 C132.25 121.375 132.25 121.375 130.84765625 119.69140625 C126.53854527 114.79229475 122.2695521 113.01278157 116.1796875 110.875 C103.42808062 106.21870119 91.2058467 99.33709789 80.25 91.375 C79.239375 90.64796875 78.22875 89.9209375 77.1875 89.171875 C75.29520891 87.8019351 73.40778076 86.42522899 71.52734375 85.0390625 C69.79822968 83.77559321 68.03186832 82.56291221 66.25 81.375 C66.92289062 82.63957031 66.92289062 82.63957031 67.609375 83.9296875 C85.04937204 120.55368129 89.55663668 168.95794413 76.0625 207.1875 C71.27259074 219.91094147 64.23194586 231.17674897 55.25 241.375 C54.734375 241.98472656 54.21875 242.59445312 53.6875 243.22265625 C41.22318277 256.90224441 24.74264223 262.05616344 6.8125 262.9375 C5.98556641 262.98068359 5.15863281 263.02386719 4.30664062 263.06835938 C2.28790451 263.17338033 0.26897049 263.27458559 -1.75 263.375 C6.44558807 279.97752368 14.82356499 296.45726659 24.1875 312.4375 C25.00287231 313.83863037 25.00287231 313.83863037 25.8347168 315.26806641 C26.35203369 316.13995605 26.86935059 317.0118457 27.40234375 317.91015625 C27.85601318 318.677229 28.30968262 319.44430176 28.77709961 320.23461914 C30.38337442 322.56881627 32.19376028 324.43282745 34.25 326.375 C34.77207031 325.68535156 35.29414063 324.99570312 35.83203125 324.28515625 C47.97955407 308.77632239 63.74345574 298.74446103 82.25 292.375 C83.77254237 291.79614204 85.29365209 291.21348351 86.8125 290.625 C93.83088926 288.07285845 100.24839215 288.12034687 107.6875 288.0625 C108.89599609 288.03349609 110.10449219 288.00449219 111.34960938 287.97460938 C125.66321171 287.87494316 136.96453748 291.65843367 147.46875 301.44140625 C152.59070816 306.78314993 155.65337887 312.48087026 158.25 319.375 C158.61609375 320.27347656 158.9821875 321.17195313 159.359375 322.09765625 C161.85750977 331.29035395 162.03120567 344.43116366 157.69140625 353.03515625 C157.21574219 353.80730469 156.74007813 354.57945312 156.25 355.375 C155.64027344 356.38433594 155.03054688 357.39367187 154.40234375 358.43359375 C142.75553446 376.37940335 127.2078232 387.93552468 107.25 395.375 C106.40824219 395.7153125 105.56648438 396.055625 104.69921875 396.40625 C86.45127626 402.69262253 63.35551993 398.28346237 46.27905273 390.37841797 C42.65393362 388.58570475 39.20220864 386.51823545 35.73046875 384.44921875 C33.40055374 383.23972553 33.40055374 383.23972553 31.2890625 383.3984375 C28.24301927 384.85727047 25.92137811 387.06974203 23.4375 389.3125 C1.76233684 408.20173991 -26.17165864 422.58907196 -55.62890625 421.58984375 C-56.65886719 421.51894531 -57.68882812 421.44804688 -58.75 421.375 C-59.99652344 421.29378906 -61.24304688 421.21257812 -62.52734375 421.12890625 C-85.24271104 419.24953822 -105.07682828 410.71278033 -124.04760742 398.37524414 C-125.89221985 397.21207265 -125.89221985 397.21207265 -128.75 396.375 C-129.21148437 397.0040625 -129.67296875 397.633125 -130.1484375 398.28125 C-140.35508115 411.67494839 -154.95504 421.30599292 -171.75 424.375 C-186.47421958 426.20209294 -199.7916373 425.62184741 -212.16015625 416.62109375 C-217.79305797 411.96619166 -221.57189961 406.93405825 -224.75 400.375 C-225.16378906 399.55128906 -225.57757813 398.72757813 -226.00390625 397.87890625 C-231.27317717 385.22898408 -230.74740565 367.79205698 -225.9453125 355.03125 C-225.55085938 354.1546875 -225.15640625 353.278125 -224.75 352.375 C-224.18925781 351.12203125 -224.18925781 351.12203125 -223.6171875 349.84375 C-216.93678667 336.57143046 -204.43227351 329.91471687 -190.81640625 325.3203125 C-174.1590229 320.18517012 -156.03587489 323.543485 -140.75 331.375 C-139.04952354 332.66493619 -137.37240726 333.98815096 -135.75 335.375 C-133.5402752 330.15508588 -132.45013512 324.91026764 -131.3125 319.375 C-130.98427246 317.78389404 -130.98427246 317.78389404 -130.64941406 316.16064453 C-126.50229349 295.59962503 -124.52156424 275.34032684 -124.75 254.375 C-125.17667969 254.73851562 -125.60335937 255.10203125 -126.04296875 255.4765625 C-137.99479855 265.08731224 -150.68338299 268.68737199 -165.75 267.375 C-172.81459705 265.74168091 -178.37439657 261.04943777 -183.75 256.375 C-184.84634766 255.43914062 -184.84634766 255.43914062 -185.96484375 254.484375 C-208.53381888 233.70029245 -215.40715667 200.29684279 -216.87109375 170.94726562 C-218.06446813 140.85036371 -212.14926589 109.97529957 -191.66015625 87.03515625 C-186.56625994 81.65478423 -181.29579576 77.81319575 -174.75 74.375 C-173.6775 73.75625 -172.605 73.1375 -171.5 72.5 C-164.63939423 70.44181827 -157.47500148 69.81806579 -150.75 72.62890625 C-144.20279671 76.63720827 -138.00511257 81.77790614 -132.75 87.375 C-132.75 88.035 -132.75 88.695 -132.75 89.375 C-132.09 89.375 -131.43 89.375 -130.75 89.375 C-104.98498487 116.19038745 -94.26163895 156.75348161 -88.75 192.375 C-88.60046875 193.27992188 -88.4509375 194.18484375 -88.296875 195.1171875 C-80.05866995 246.96106413 -80.55334994 312.98285426 -105.796875 360.25268555 C-106.95483976 362.44336248 -106.95483976 362.44336248 -106.75 365.375 C-104.88312853 366.97910397 -103.09857463 368.32877411 -101.0625 369.6875 C-100.47307617 370.08340332 -99.88365234 370.47930664 -99.27636719 370.88720703 C-81.38824704 382.61111335 -60.49321562 386.25595264 -39.5 382.1875 C-23.5846401 378.25845211 -7.430678 370.89726472 5.25 360.375 C4.64941511 357.26050783 3.6892223 355.32380654 1.73828125 352.8359375 C1.23071289 352.17835449 0.72314453 351.52077148 0.20019531 350.84326172 C-0.34024414 350.15248535 -0.88068359 349.46170898 -1.4375 348.75 C-5.97626854 342.82031852 -10.10467416 336.90196609 -13.75 330.375 C-14.31460937 329.41464844 -14.87921875 328.45429688 -15.4609375 327.46484375 C-20.36892095 319.06117412 -24.86801959 310.46580993 -29.32666016 301.81640625 C-31.99122045 296.66710778 -34.73732616 291.63958263 -37.75 286.6875 C-58.85037966 250.30904462 -71.83127438 206.39085026 -80.13427734 165.40332031 C-80.53301842 163.44218458 -80.94157777 161.48300903 -81.36181641 159.52636719 C-90.7506734 115.11607234 -85.41571862 69.72243137 -60.83325195 31.32202148 C-50.49333695 15.57144436 -35.79401808 5.05282753 -17.29272461 0.97705078 C-11.5180015 -0.00430593 -5.84443602 -0.05956956 0 0 Z " fill="#FDFDFD" transform="translate(356.75,132.625)"/>
<path d="M0 0 C6.60606566 4.77911343 14.00620041 11.82542168 16 20 C17.63474751 34.32633275 11.05059242 47.86728261 2.34375 58.82519531 C-1.44813733 63.4118761 -5.43893076 67.58971977 -10.03125 71.37109375 C-11.38025806 72.48723732 -12.6920462 73.64947987 -13.96875 74.84765625 C-37.11106462 96.56516418 -67.48069655 107.80498138 -98 114 C-98.88204102 114.18369141 -99.76408203 114.36738281 -100.67285156 114.55664062 C-113.91249387 117.19510845 -127.23783355 117.30519596 -140.6875 117.375 C-141.98181442 117.38705475 -141.98181442 117.38705475 -143.30227661 117.39935303 C-160.33586828 117.51963446 -176.89604994 115.85236257 -193 110 C-194.17691406 109.57976562 -195.35382813 109.15953125 -196.56640625 108.7265625 C-210.8836601 103.41774884 -223.54669585 96.13899055 -235 86 C-236.05574219 85.14148438 -236.05574219 85.14148438 -237.1328125 84.265625 C-242.03378395 80.22953086 -245.86928171 75.63122094 -249.8125 70.66796875 C-252.65361177 67.20282708 -255.74145048 64.0699518 -259 61 C-258.01 60.505 -258.01 60.505 -257 60 C-255.07598242 60.78863241 -253.18614781 61.66070811 -251.3125 62.5625 C-235.18288105 69.83740153 -217.59509692 73.16625154 -200 74 C-199.30310059 74.03319336 -198.60620117 74.06638672 -197.88818359 74.10058594 C-157.08598405 75.68837271 -118.02495834 66.31207374 -85 42 C-83.78528632 41.11310307 -82.57043772 40.22639092 -81.35546875 39.33984375 C-78.81273988 37.48061937 -76.27628311 35.61315529 -73.7421875 33.7421875 C-70.8127734 31.58549881 -67.85460014 29.47462021 -64.88037109 27.38037109 C-58.76021795 23.06784322 -52.82572057 18.56184419 -46.9375 13.9375 C-41.62845107 9.78212883 -36.31298734 5.65022681 -30.8125 1.75 C-29.84957031 1.06421875 -28.88664063 0.3784375 -27.89453125 -0.328125 C-18.57966134 -5.70837375 -9.06919989 -5.47056719 0 0 Z " fill="#010101" transform="translate(479,633)"/>
<path d="M0 0 C2.9410542 1.72592029 5.45192742 3.74077776 8 6 C8.65742188 6.56460938 9.31484375 7.12921875 9.9921875 7.7109375 C29.75989562 25.94030257 36.95159384 56.5203094 41 82 C41.19464844 83.216875 41.38929688 84.43375 41.58984375 85.6875 C42.33312889 92.02877507 42.24438714 98.43629317 42.25 104.8125 C42.25067474 105.50085938 42.25134949 106.18921875 42.25204468 106.8984375 C42.2176689 129.02230552 39.54595189 155.45404811 23 172 C16.59581082 177.20914909 7.78595295 180.97308859 -0.51953125 181.01171875 C-11.61108237 179.08866523 -19.03962427 170.58211132 -25.22265625 161.8671875 C-38.93325828 141.71214281 -45.28503499 118.09373673 -47.6875 94.0625 C-47.81342529 92.81194824 -47.93935059 91.56139648 -48.0690918 90.27294922 C-50.60869725 63.23311484 -50.74126711 32.1841965 -33.96875 9.21875 C-24.39266128 -2.24558156 -13.99298954 -5.83959406 0 0 Z " fill="#010101" transform="translate(364,177)"/>
<path d="M0 0 C0.92804443 0.00563965 1.85608887 0.0112793 2.81225586 0.01708984 C18.99942167 0.30288719 32.93469457 6.13585973 44.75 17.3125 C56.4981669 29.73199073 62.36782847 44.74187622 62.1875 61.75 C62.17992676 62.75772461 62.17235352 63.76544922 62.16455078 64.80371094 C61.99954876 72.254094 61.05428729 78.55890969 57.75 85.3125 C57.34910156 86.21484375 56.94820313 87.1171875 56.53515625 88.046875 C49.03604541 103.43635464 36.38289278 112.83029379 20.8671875 119.26953125 C5.08349184 124.5505422 -10.96438158 123.78201077 -26.13671875 117.02734375 C-33.16239593 113.5096058 -38.71159521 108.84142122 -44.25 103.3125 C-44.8996875 102.67441406 -45.549375 102.03632812 -46.21875 101.37890625 C-58.62919736 88.28806156 -61.04804104 71.84278178 -60.59765625 54.54296875 C-60.28639495 48.27200185 -58.98922782 42.97015747 -56.25 37.3125 C-55.82589844 36.38566406 -55.40179688 35.45882812 -54.96484375 34.50390625 C-51.44517222 27.43515088 -46.79647647 21.88858399 -41.25 16.3125 C-40.73179687 15.75949219 -40.21359375 15.20648438 -39.6796875 14.63671875 C-35.77995952 10.8492866 -31.11491127 8.50850322 -26.3125 6.0625 C-25.64404053 5.7207373 -24.97558105 5.37897461 -24.28686523 5.02685547 C-16.22887516 1.08188996 -8.93972654 -0.0568117 0 0 Z " fill="#FDFDFD" transform="translate(388.25,4.6875)"/>
<path d="M0 0 C-1.94668425 0.97766809 -3.89135348 1.94954074 -5.8671875 2.8671875 C-13.15925883 6.52741007 -19.01693731 11.86196471 -25.05517578 17.26171875 C-26.44226537 18.50149755 -27.83738142 19.73232047 -29.23779297 20.95703125 C-33.99061552 25.15299396 -38.5352924 29.48867208 -42.953125 34.03125 C-43.46670059 34.55736877 -43.98027618 35.08348755 -44.50941467 35.62554932 C-46.61796172 37.78788259 -48.72520581 39.95092649 -50.81201172 42.13427734 C-69.67664553 61.82604825 -93.45782566 72.3333953 -120.796875 73.50390625 C-123.4513836 73.54904645 -126.09611736 73.57428075 -128.75 73.5625 C-129.4552179 73.56168427 -130.16043579 73.56086853 -130.88702393 73.56002808 C-163.6175102 73.38835028 -204.07456122 63.66086047 -228 40 C-232.22519267 35.03880602 -234 30.52442709 -234 24 C-232.29387401 19.73468503 -230.05047224 18.01943315 -226 16 C-213.13647235 14.95956762 -199.99554415 21.25149742 -188.3125 25.875 C-180.58613294 28.8848699 -172.85998184 31.85528109 -165 34.5 C-164.32622314 34.73058105 -163.65244629 34.96116211 -162.95825195 35.19873047 C-142.68341057 41.87696647 -117.89692562 41.94084177 -98.46118164 32.51831055 C-85.11504476 25.57107934 -72.63432306 16.52811032 -61.29296875 6.69018555 C-43.10613221 -9.08525035 -21.60091814 -9.16903217 0 0 Z " fill="#020202" transform="translate(429,601)"/>
<path d="M0 0 C0.86753906 0.44730469 1.73507812 0.89460938 2.62890625 1.35546875 C13.61149157 7.46054226 20.67394012 16.12658937 25.10546875 27.94921875 C28.93013559 41.39839934 27.80755101 54.50944593 21.4921875 66.9765625 C14.30862169 79.10509454 3.57945556 86.55517004 -9.69921875 90.87890625 C-12.14985677 91.44322386 -14.49513625 91.7830433 -17 92 C-17.93199219 92.08121094 -18.86398437 92.16242188 -19.82421875 92.24609375 C-32.21604194 92.78064299 -43.33387642 88.68295233 -53 81 C-63.68467455 71.09753683 -68.74047047 59.76711147 -70.28515625 45.3359375 C-70.73747203 32.94641833 -65.77896995 21.11374005 -57.8125 11.8125 C-43.1372296 -3.63898305 -19.76820926 -10.62417902 0 0 Z " fill="#FDFDFD" transform="translate(283,36)"/>
<path d="M0 0 C10.79102149 5.39551075 15.96715887 16.81211109 19.640625 27.73046875 C20.18507744 29.4427912 20.72154193 31.15767397 21.25 32.875 C21.49621094 33.66414795 21.74242187 34.4532959 21.99609375 35.26635742 C28.52495784 57.55151679 30.49980536 87.61163682 19.54296875 108.8203125 C16.78718678 112.87763793 13.76242604 115.51174186 9 117 C3.31263705 116.88151327 -0.44489738 114.38606275 -4.53515625 110.56640625 C-20.12307501 93.94195069 -23.68907864 62.38443583 -23.47460938 40.60961914 C-23.01403567 27.24146747 -21.11198266 11.75440019 -11.1875 1.9375 C-7.21981552 -0.47422978 -4.52342086 -0.96281649 0 0 Z " fill="#020202" transform="translate(197,247)"/>
<path d="M0 0 C5.68245078 3.39016702 10.24870859 8.68491717 13.1875 14.5625 C14.52925706 22.61304234 13.98269902 29.42674269 9.6875 36.5625 C4.47795549 42.48378493 -0.46564473 45.92281352 -8.390625 46.96875 C-16.5532362 47.21000944 -22.02347986 45.91286042 -28.3125 40.5625 C-33.76634766 34.6970412 -35.76459755 28.98490812 -35.5546875 21.11328125 C-34.81343665 13.306236 -31.03554363 7.78839034 -25.3125 2.5625 C-18.36521344 -2.87317915 -8.03456326 -3.43885646 0 0 Z " fill="#FBFBFB" transform="translate(192.3125,110.4375)"/>
<path d="M0 0 C2 3 2 3 1.9375 6.3125 C0.52611571 11.86394486 -2.48288361 14.91606542 -7.0234375 18.16015625 C-15.44705958 22.94139629 -23.67202352 26.32995268 -33 29 C-33.62406738 29.18030762 -34.24813477 29.36061523 -34.89111328 29.54638672 C-39.10650512 30.45310101 -43.45571749 30.18467481 -47.75 30.1875 C-48.71421875 30.19974609 -49.6784375 30.21199219 -50.671875 30.22460938 C-56.47401767 30.23643439 -61.43837295 29.66717019 -67 28 C-66.505 26.515 -66.505 26.515 -66 25 C-65.34 25 -64.68 25 -64 25 C-63.76925781 24.42765625 -63.53851563 23.8553125 -63.30078125 23.265625 C-56.76485219 11.88172454 -38.00261353 2.45479057 -25.83984375 -1.74609375 C-17.77251771 -3.86907429 -7.029844 -5.12988616 0 0 Z " fill="#040404" transform="translate(484,461)"/>
<path d="M0 0 C5.06874385 2.34925844 9.44887825 5.24723844 13.6875 8.875 C6.29988001 16.93422181 -1.1691147 19.28431213 -11.85546875 20.16796875 C-22.35764249 20.57743179 -22.35764249 20.57743179 -26.125 17.5 C-29.11066835 13.91719798 -29.7734139 11.64271187 -29.73046875 6.91015625 C-29.3125 4.875 -29.3125 4.875 -26.5625 2 C-18.03924005 -3.57290073 -9.55781917 -3.7769781 0 0 Z " fill="#030303" transform="translate(187.3125,497.125)"/>
<path d="M0 0 C4.5310695 2.35794841 7.37016694 5.41759256 10.16015625 9.64453125 C9.25634702 12.76678133 8.81306997 14.28180141 5.91015625 15.89453125 C-4.55369441 18.7483087 -13.95510753 18.43967988 -23.83984375 13.64453125 C-27.30794952 10.9191297 -29.34875935 8.23111161 -30.65234375 4.01953125 C-29.59194865 0.91991481 -27.8864657 -0.66509116 -25.140625 -2.3984375 C-16.90067143 -5.82592243 -7.93301452 -3.0484563 0 0 Z " fill="#0B1213" transform="translate(568.83984375,388.35546875)"/>
<path d="M0 0 C1.875 1 1.875 1 3 3 C3.98477329 10.01650968 1.94194351 15.18634231 -2 21 C-6.23421835 25.5528328 -10.7371051 29.73896841 -17.125 30.25 C-20 30 -20 30 -22 28 C-23.0797412 21.24533995 -21.94260712 15.55653985 -18 10 C-13.09252884 4.20871886 -8.10467683 -1.05713176 0 0 Z " fill="#0B1313" transform="translate(536,179)"/>
<path d="M0 0 C0.69867188 0.36480469 1.39734375 0.72960937 2.1171875 1.10546875 C2.82101563 1.46253906 3.52484375 1.81960938 4.25 2.1875 C5.9921875 3.29296875 5.9921875 3.29296875 6.9921875 5.29296875 C5.55287633 4.84035517 4.11579751 4.38063896 2.6796875 3.91796875 C1.87917969 3.66273438 1.07867187 3.4075 0.25390625 3.14453125 C-2.0078125 2.29296875 -2.0078125 2.29296875 -5.0078125 0.29296875 C-2.0078125 -0.70703125 -2.0078125 -0.70703125 0 0 Z " fill="#D1D1D1" transform="translate(224.0078125,691.70703125)"/>
</svg>
