<?xml version="1.0" standalone="no"?>
<!DOCTYPE svg PUBLIC "-//W3C//DTD SVG 20010904//EN"
 "http://www.w3.org/TR/2001/REC-SVG-20010904/DTD/svg10.dtd">
<svg version="1.0" xmlns="http://www.w3.org/2000/svg"
 width="700.000000pt" height="800.000000pt" viewBox="0 0 700.000000 800.000000"
 preserveAspectRatio="xMidYMid meet">

<g transform="translate(0.000000,800.000000) scale(0.100000,-0.100000)"
fill="#000000" stroke="none">
<path d="M3740 7935 c-214 -59 -391 -235 -444 -441 -9 -35 -16 -102 -16 -154
0 -167 50 -295 161 -413 114 -122 244 -184 406 -194 152 -10 278 26 400 113
163 116 253 291 253 490 -1 266 -145 481 -385 575 -71 28 -94 32 -200 35 -86
3 -136 0 -175 -11z"/>
<path d="M2545 7679 c-78 -12 -187 -65 -251 -122 -205 -186 -214 -497 -19
-692 71 -71 147 -111 254 -132 174 -36 367 40 476 187 107 146 123 329 44 496
-88 187 -292 293 -504 263z"/>
<path d="M1731 6896 c-54 -19 -112 -75 -139 -134 -69 -151 35 -319 203 -330
78 -5 120 8 174 54 61 52 85 105 85 184 -1 78 -24 130 -83 183 -60 55 -159 72
-240 43z"/>
<path d="M3470 6668 c-219 -20 -399 -137 -525 -339 -109 -175 -166 -319 -202
-510 -28 -149 -25 -522 5 -692 42 -231 105 -471 184 -697 54 -157 202 -510
245 -590 20 -36 76 -141 125 -233 106 -200 158 -286 256 -419 41 -54 71 -105
69 -113 -8 -20 -109 -86 -207 -135 -134 -67 -241 -100 -351 -107 -210 -13
-390 43 -557 175 l-23 18 36 78 c127 280 172 524 182 998 6 297 -4 463 -43
698 -85 511 -273 891 -537 1091 -42 32 -96 63 -118 69 -117 32 -318 -86 -431
-253 -115 -169 -172 -401 -171 -692 1 -301 68 -560 198 -755 55 -83 177 -200
243 -232 70 -34 193 -38 274 -8 67 24 168 81 188 105 7 8 15 15 19 15 9 0 -7
-250 -24 -380 -18 -130 -59 -356 -75 -413 l-11 -37 -33 25 c-19 14 -74 42
-122 63 -87 36 -92 36 -219 37 -117 0 -138 -3 -211 -28 -134 -46 -245 -129
-290 -219 -40 -79 -66 -193 -66 -289 0 -221 113 -392 301 -454 69 -23 211 -23
303 -1 143 34 296 133 379 245 l25 34 74 -47 c355 -223 698 -269 1043 -140 96
37 261 139 377 234 111 90 105 89 191 37 146 -87 412 -138 570 -109 146 28
302 110 420 220 143 134 211 262 211 394 -1 219 -126 397 -325 460 -87 28
-272 28 -379 -1 -212 -56 -406 -177 -529 -330 l-36 -45 -30 45 c-54 79 -178
300 -256 455 l-76 152 117 4 c93 4 132 10 192 31 176 62 321 205 430 425 134
268 156 597 65 971 -34 138 -90 322 -111 363 -17 32 -17 32 4 18 166 -120 239
-166 357 -226 77 -40 159 -78 183 -85 34 -10 72 -42 195 -164 138 -137 171
-164 352 -286 159 -106 221 -154 300 -234 102 -102 198 -231 254 -342 36 -72
37 -77 14 -64 -44 23 -122 42 -205 51 -257 26 -508 -70 -628 -241 -92 -132
-95 -273 -7 -444 77 -150 213 -259 372 -300 115 -29 384 -14 525 30 13 4 14
-11 9 -113 -8 -154 -24 -249 -64 -398 -47 -170 -104 -280 -196 -376 -93 -97
-281 -228 -443 -308 -106 -53 -135 -62 -239 -80 -66 -11 -148 -20 -184 -20
-103 0 -357 64 -613 155 -119 42 -145 48 -220 49 -146 2 -234 -39 -440 -205
-251 -201 -470 -319 -594 -319 -96 0 -354 83 -582 189 -159 73 -196 82 -336
82 -95 0 -114 -3 -162 -26 -87 -41 -141 -89 -191 -170 -29 -46 -51 -72 -59
-68 -66 40 -200 150 -267 221 -274 289 -396 591 -491 1212 -21 138 -17 841 5
995 44 298 94 521 188 834 100 332 169 507 315 807 70 142 77 192 37 252 -44
64 -116 112 -170 112 -85 0 -124 -36 -224 -206 -193 -330 -302 -606 -408
-1031 -65 -259 -85 -358 -100 -503 -6 -52 -20 -171 -30 -265 -26 -222 -38
-754 -22 -945 23 -262 47 -369 178 -775 61 -192 169 -424 256 -556 146 -220
339 -419 576 -596 62 -46 101 -82 101 -93 0 -39 63 -209 110 -296 94 -172 280
-411 417 -534 168 -152 494 -318 794 -405 189 -55 273 -67 496 -72 273 -7 523
20 769 82 198 50 400 148 578 281 433 324 636 716 588 1138 -12 112 -54 244
-102 319 l-28 44 99 33 c202 66 469 222 644 377 294 259 414 560 417 1043 2
208 -9 281 -64 445 l-23 70 38 75 c58 116 71 182 71 355 1 126 -3 164 -22 235
-76 277 -289 546 -642 809 -64 49 -149 108 -188 132 -40 24 -72 47 -72 51 0 3
14 11 30 17 52 18 148 91 189 145 168 218 156 500 -30 685 -299 299 -814 116
-870 -309 -6 -47 -12 -86 -14 -88 -1 -1 -42 27 -91 64 -102 77 -486 332 -619
411 -91 54 -254 123 -335 142 -61 14 -160 18 -250 9z m156 -437 c130 -58 260
-246 344 -500 150 -448 105 -1004 -96 -1206 -51 -50 -157 -97 -224 -98 -106
-1 -217 99 -324 294 -109 200 -170 496 -169 824 1 286 57 491 170 616 87 96
187 119 299 70z m1746 -38 c52 -47 -9 -190 -110 -254 -78 -50 -128 -33 -125
41 3 76 67 170 142 210 45 24 69 25 93 3z m-3384 -677 c142 -75 251 -416 240
-751 -8 -220 -54 -346 -141 -389 -36 -17 -40 -17 -82 -2 -90 35 -164 159 -215
361 -113 447 -2 885 198 781z m3658 -1390 c95 -35 156 -96 134 -136 -23 -42
-185 -58 -277 -27 -59 21 -113 74 -113 112 0 22 32 54 70 68 37 14 123 6 186
-17z m-841 -721 c68 -28 67 -107 -3 -165 -54 -45 -156 -95 -255 -125 -81 -26
-97 -27 -205 -22 -123 6 -162 13 -162 29 0 13 82 90 145 137 179 134 370 192
480 146z m-2923 -387 c32 -15 73 -39 92 -53 l35 -27 -33 -29 c-54 -47 -118
-70 -214 -76 -70 -5 -94 -2 -119 11 -41 21 -63 53 -63 91 0 104 161 148 302
83z m2268 -987 c41 -11 89 -26 107 -33 l32 -14 -47 -16 c-67 -24 -190 -126
-402 -333 -197 -194 -239 -226 -353 -280 -153 -73 -302 -99 -524 -93 -401 13
-850 183 -975 369 -53 80 -45 148 22 182 63 32 105 22 495 -123 213 -79 308
-101 444 -101 162 1 245 18 361 76 78 39 283 178 360 244 92 79 122 98 185
120 78 26 194 27 295 2z m608 -347 c53 -26 139 -112 170 -168 26 -49 21 -165
-10 -244 -44 -107 -89 -172 -189 -272 -122 -121 -226 -195 -420 -297 -172 -91
-301 -134 -527 -175 -112 -20 -159 -23 -392 -23 -237 0 -276 3 -367 23 -225
49 -426 149 -585 288 -62 55 -245 254 -234 254 3 0 43 -15 88 -34 225 -92 429
-122 728 -106 249 14 419 50 595 126 161 69 251 129 684 454 117 87 230 164
261 177 74 30 133 29 198 -3z"/>
</g>
</svg>
